# MagicaVoxel @ Ephtracy

# material
mtllib road.mtl
usemtl palette

# normals
vn -1 0 0
vn 1 0 0
vn 0 0 1
vn 0 0 -1
vn 0 -1 0
vn 0 1 0

# texcoords
vt 0.0214844 0.5
vt 0.970703 0.5
vt 0.982422 0.5

# verts
v -14 0 63
v -14 0 -63
v -14 1 63
v -14 1 -63
v 14 0 63
v 14 0 -63
v 14 1 63
v 14 1 -63
v -14 0 63
v -14 1 63
v -9 0 63
v -9 1 63
v -1 0 63
v -1 1 63
v 1 0 63
v 1 1 63
v 9 0 63
v 9 1 63
v 14 0 63
v 14 1 63
v -14 0 -63
v -14 1 -63
v -9 0 -63
v -9 1 -63
v -1 0 -63
v -1 1 -63
v 1 0 -63
v 1 1 -63
v 9 0 -63
v 9 1 -63
v 14 0 -63
v 14 1 -63
v -14 0 63
v -9 0 63
v -1 0 63
v 1 0 63
v 9 0 63
v 14 0 63
v -14 0 -63
v -9 0 -63
v -1 0 -63
v 1 0 -63
v 9 0 -63
v 14 0 -63
v -14 1 63
v -9 1 63
v -1 1 63
v 1 1 63
v 9 1 63
v 14 1 63
v -14 1 -63
v -9 1 -63
v -1 1 -63
v 1 1 -63
v 9 1 -63
v 14 1 -63

# faces
f 3/3/1 2/3/1 1/3/1
f 4/3/1 2/3/1 3/3/1
f 5/3/2 6/3/2 7/3/2
f 7/3/2 6/3/2 8/3/2
f 11/3/3 10/3/3 9/3/3
f 12/3/3 10/3/3 11/3/3
f 13/2/3 12/2/3 11/2/3
f 14/2/3 12/2/3 13/2/3
f 15/1/3 14/1/3 13/1/3
f 16/1/3 14/1/3 15/1/3
f 17/2/3 16/2/3 15/2/3
f 18/2/3 16/2/3 17/2/3
f 19/3/3 18/3/3 17/3/3
f 20/3/3 18/3/3 19/3/3
f 21/3/4 22/3/4 23/3/4
f 23/3/4 22/3/4 24/3/4
f 23/2/4 24/2/4 25/2/4
f 25/2/4 24/2/4 26/2/4
f 25/1/4 26/1/4 27/1/4
f 27/1/4 26/1/4 28/1/4
f 27/2/4 28/2/4 29/2/4
f 29/2/4 28/2/4 30/2/4
f 29/3/4 30/3/4 31/3/4
f 31/3/4 30/3/4 32/3/4
f 39/3/5 34/3/5 33/3/5
f 40/2/5 35/2/5 34/2/5
f 40/3/5 34/3/5 39/3/5
f 41/1/5 36/1/5 35/1/5
f 41/2/5 35/2/5 40/2/5
f 42/2/5 37/2/5 36/2/5
f 42/1/5 36/1/5 41/1/5
f 43/3/5 38/3/5 37/3/5
f 43/2/5 37/2/5 42/2/5
f 44/3/5 38/3/5 43/3/5
f 45/3/6 46/3/6 51/3/6
f 46/2/6 47/2/6 52/2/6
f 51/3/6 46/3/6 52/3/6
f 47/1/6 48/1/6 53/1/6
f 52/2/6 47/2/6 53/2/6
f 48/2/6 49/2/6 54/2/6
f 53/1/6 48/1/6 54/1/6
f 49/3/6 50/3/6 55/3/6
f 54/2/6 49/2/6 55/2/6
f 55/3/6 50/3/6 56/3/6
